<svg width="570" height="453" viewBox="0 0 570 453" fill="none" xmlns="http://www.w3.org/2000/svg">
<g clip-path="url(#clip0)">
<path opacity="0.1" d="M334.285 76.5548C298.218 75.3013 263.863 63.6638 231.062 50.9288C198.261 38.1938 165.772 24.0828 130.569 17.3365C107.927 12.9968 82.0304 12.384 63.7909 24.5174C46.2313 36.2162 40.5583 56.3548 37.51 75.0618C35.214 89.1338 33.8654 103.941 40.157 117.116C44.5205 126.264 52.2721 133.951 57.6275 142.742C76.2794 173.226 63.0999 210.818 42.8876 240.583C33.414 254.549 22.4079 267.88 15.0965 282.732C7.7851 297.584 4.39688 314.625 10.7944 329.789C17.1417 344.831 32.2605 356.106 48.6331 364.045C81.8967 380.172 121.078 384.785 159.313 387.398C243.923 393.186 328.98 390.679 413.813 388.172C445.21 387.242 476.74 386.3 507.624 381.448C524.777 378.752 542.482 374.479 554.937 364.15C570.741 351.042 574.659 328.842 564.071 312.408C546.299 284.838 497.198 277.991 484.76 248.399C477.927 232.115 484.949 213.977 494.88 198.869C516.19 166.468 551.905 138.04 553.789 101.005C555.082 75.5632 537.907 50.0932 511.358 38.0546C483.534 25.392 444.937 26.9964 424.418 47.8815C403.275 69.4018 366.128 77.6578 334.285 76.5548Z" fill="#274259"/>
<path d="M242.664 384.668L51.921 383.738L32.9682 339.299L99.9857 334.435L88.3053 285.713L220.858 268.538L93.9282 224.428L105.14 221.765L309.241 255.051L298.001 331.087L281.935 372.874L242.664 384.668Z" fill="#274259"/>
<path d="M54.8467 365.125C54.8467 365.125 66.5494 363.253 73.571 371.521C73.571 371.521 68.4218 375.576 57.3433 369.961L54.8467 365.125Z" fill="#274259"/>
<path d="M53.6207 364.941C53.6207 364.941 46.1533 374.128 49.8313 384.356C49.8313 384.356 55.9167 381.921 56.5798 369.521L53.6207 364.941Z" fill="#274259"/>
<path d="M46.9111 349.839C46.9111 349.839 51.5922 341.254 70.3166 353.27C70.3166 353.27 67.82 359.042 59.5501 358.574C51.2802 358.106 49.0957 354.362 46.9111 349.839Z" fill="#274259"/>
<path d="M45.7019 349.22C45.7019 349.22 35.9886 348.106 35.0468 370.334C35.0468 370.334 41.2047 371.61 45.5793 364.579C49.9538 357.549 48.1594 353.605 45.7019 349.22Z" fill="#274259"/>
<path d="M40.0456 331.488C40.0456 331.488 45.5068 316.358 65.3234 327.121C65.3234 327.121 60.7984 341.003 42.074 336.636L40.0456 331.488Z" fill="#274259"/>
<path d="M33.9601 308.871C33.9601 308.871 44.2585 293.584 62.5147 307.757C62.5147 307.757 56.1173 322.107 35.5205 314.308L33.9601 308.871Z" fill="#274259"/>
<path d="M31.7757 287.345C31.7757 287.345 43.7904 273.301 61.8683 287.345C61.8683 287.345 50.4777 299.668 31.7757 290.933V287.345Z" fill="#274259"/>
<path d="M29.9032 266.437C29.9032 266.437 42.074 251.775 59.394 265.658C59.394 265.658 45.6629 278.604 29.9032 269.869V266.437Z" fill="#274259"/>
<path d="M30.9955 247.875C30.9955 247.875 43.8127 229.001 60.0182 241.792C60.0182 241.792 46.287 258.014 30.9955 251.463V247.875Z" fill="#274259"/>
<path d="M33.9601 226.194C33.9601 226.194 47.5353 207.476 63.2949 221.826C63.2949 221.826 47.2232 238.048 33.9601 229.625V226.194Z" fill="#274259"/>
<path d="M38.4852 206.813C38.4852 206.813 54.5569 189.22 68.5779 196.228C68.5779 196.228 51.8319 214.913 37.783 211.481L38.4852 206.813Z" fill="#274259"/>
<path d="M44.1025 188.44C44.1025 188.44 62.6485 166.892 73.4373 174.089C73.4373 174.089 59.773 190.802 42.7873 192.473L44.1025 188.44Z" fill="#274259"/>
<path d="M52.2108 167.131C52.2108 167.131 68.4441 149.539 80.3029 153.906C80.3029 153.906 66.4157 172.156 50.0319 172.624L52.2108 167.131Z" fill="#274259"/>
<path d="M59.5501 147.199C59.5501 147.199 77.4942 130.353 85.296 133.316C85.296 133.316 72.345 152.034 58.7699 150.942L59.5501 147.199Z" fill="#274259"/>
<path d="M66.7277 128.793C66.7277 128.793 82.1753 108.665 90.6068 110.225C90.6068 110.225 81.2391 128.169 66.7277 130.837V128.793Z" fill="#274259"/>
<path d="M74.5184 103.975C74.5184 103.975 88.1716 88.5488 95.5498 88.5822C95.5498 88.5822 84.7722 109.194 73.9555 109.005L74.5184 103.975Z" fill="#274259"/>
<path d="M79.1326 87.4513L92.3232 55.3186C92.3232 55.3186 92.9808 84.3651 77.4552 93.4122L79.1326 87.4513Z" fill="#274259"/>
<path d="M84.488 52.0151C84.488 52.0151 86.6725 25.1803 85.2682 22.9965C85.2682 22.9965 94.6972 45.3078 84.3988 63.8699L84.488 52.0151Z" fill="#274259"/>
<path d="M39.5329 331.132C39.5329 331.132 25.8574 322.659 17.0023 343.388C17.0023 343.388 29.1732 351.466 41.1434 336.419L39.5329 331.132Z" fill="#274259"/>
<path d="M33.5199 308.007C33.5199 308.007 16.746 300.359 8.60985 322.001C8.60985 322.001 21.5664 330.915 35.0468 313.478L33.5199 308.007Z" fill="#274259"/>
<path d="M30.9955 288.632C30.9955 288.632 18.9807 274.588 0.902786 288.632C0.902786 288.632 12.2934 300.955 30.9955 292.219V288.632Z" fill="#274259"/>
<path d="M29.4908 266.437C29.4908 266.437 17.32 251.775 0 265.658C0 265.658 13.7312 278.604 29.4908 269.869V266.437Z" fill="#274259"/>
<path d="M30.9955 248.41C30.9955 248.41 22.4581 227.269 3.90091 236.36C3.90091 236.36 13.9318 255.106 30.2376 251.92L30.9955 248.41Z" fill="#274259"/>
<path d="M35.0357 226.088C35.0357 226.088 26.5484 204.579 7.72935 214.55C7.72935 214.55 19.2537 234.266 34.1998 229.408L35.0357 226.088Z" fill="#274259"/>
<path d="M40.2963 206.918C40.2963 206.918 36.9527 183.337 21.3491 181.226C21.3491 181.226 24.6593 206.094 38.1954 211.169L40.2963 206.918Z" fill="#274259"/>
<path d="M44.4982 188.484C44.4982 188.484 43.1941 160.073 30.2933 159.081C30.2933 159.081 30.728 180.646 43.0437 192.507L44.4982 188.484Z" fill="#274259"/>
<path d="M53.5483 166.335C53.5483 166.335 49.7031 142.709 37.3874 139.823C37.3874 139.823 38.9143 162.703 52.3278 172.134L53.5483 166.335Z" fill="#274259"/>
<path d="M61.0101 147.394C61.0101 147.394 60.882 122.782 53.3588 119.166C53.3588 119.166 48.6944 141.45 58.8312 150.536L61.0101 147.394Z" fill="#274259"/>
<path d="M67.3017 128.514C67.3017 128.514 66.2485 103.172 58.4578 99.6014C58.4578 99.6014 55.7941 119.656 66.137 130.174L67.3017 128.514Z" fill="#274259"/>
<path d="M75.6051 105.997C75.6051 105.997 75.5605 85.3846 69.9989 80.5491C69.9989 80.5491 64.4708 103.128 72.7017 110.141L75.6051 105.997Z" fill="#274259"/>
<path d="M78.4806 86.4375L73.0695 52.1321C73.0695 52.1321 65.7191 80.2427 78.7369 92.6323L78.4806 86.4375Z" fill="#274259"/>
<path d="M79.5339 52.3382C79.5339 52.3382 65.6466 29.2749 65.9308 26.7123C65.9308 26.7123 67.4076 50.8842 84.8781 62.9229L79.5339 52.3382Z" fill="#274259"/>
<path d="M81.1611 45.525C81.1611 45.525 68.054 12.7684 62.1247 10.1167C62.1247 10.1167 80.849 19.6317 82.2533 44.5891L81.1611 45.525Z" fill="#274259"/>
<path d="M73.8887 109.2L72.9915 108.927C84.0533 72.8668 86.8118 49.8759 80.7654 44.1101L81.4063 43.4304C87.8205 49.5138 85.218 72.2541 73.8887 109.2Z" fill="#444053"/>
<path d="M43.4282 193.632L42.1019 193.158C43.2777 189.855 44.5427 186.501 45.8691 183.198C57.4157 154.43 67.246 127.667 73.5488 107.122L74.7023 106.565C68.3884 127.149 58.7309 154.937 47.1731 183.744C45.8523 186.986 44.5929 190.323 43.4282 193.632Z" fill="#444053"/>
<path d="M71.3364 392.111C71.158 391.916 53.2306 371.732 40.731 337.277C33.407 317.104 29.3309 295.898 28.6549 274.448C27.7967 247.636 33.4252 217.698 43.066 190.501L44.1136 191.727C22.4692 252.767 31.0679 305.071 42.4753 336.569C54.8411 370.713 72.5679 390.673 72.7407 390.874L71.3364 392.111Z" fill="#444053"/>
<path d="M351.488 349.259C351.488 349.259 338.855 364.674 348.886 387.977L248.019 431.708L238.34 433.736L233.881 414.238L236.863 389.631V376.183L351.488 349.259Z" fill="#D5D6DB"/>
<path d="M32.9682 339.299L172.576 313.857L357.562 343.315L242.664 384.668L32.9682 339.299Z" fill="#274259"/>
<path d="M32.9682 339.299L172.576 313.857L357.562 343.315L242.664 384.668L32.9682 339.299Z" fill="#274259"/>
<path d="M32.9682 339.293C32.9682 339.293 19.9113 364.022 34.9577 386.863L241.984 431.708C241.984 431.708 229.133 412.01 242.647 384.668L32.9682 339.293Z" fill="#274259"/>
<path opacity="0.1" d="M32.9682 339.293C32.9682 339.293 19.9113 364.022 34.9577 386.863L241.984 431.708C241.984 431.708 229.133 412.01 242.647 384.668L32.9682 339.293Z" fill="black"/>
<path opacity="0.1" d="M39.1372 347.867C39.1372 347.867 31.6753 365.961 39.1372 377.671Z" fill="black"/>
<path d="M241.984 431.708L357.562 382.406C357.562 382.406 364.027 383.799 359.847 388.534C355.668 393.269 244.213 436.443 244.213 436.443L34.9577 386.863L241.984 431.708Z" fill="#274259"/>
<path opacity="0.1" d="M241.984 431.708L357.562 382.406C357.562 382.406 364.027 383.799 359.847 388.534C355.668 393.269 244.213 436.443 244.213 436.443L34.9577 386.863L241.984 431.708Z" fill="black"/>
<path opacity="0.1" d="M232.511 389.648C232.511 389.648 221.365 403.018 232.511 423.073Z" fill="black"/>
<path opacity="0.1" d="M286.47 389.422L236.477 406.095L236.654 406.624L286.646 389.951L286.47 389.422Z" fill="black"/>
<path opacity="0.1" d="M296.483 387.763L236.461 410.579L236.66 411.1L296.681 388.284L296.483 387.763Z" fill="black"/>
<path opacity="0.1" d="M305.679 387.683L236.796 415.868L237.008 416.384L305.89 388.199L305.679 387.683Z" fill="black"/>
<path opacity="0.1" d="M315.679 385.269L237.6 420.528L237.83 421.035L315.908 385.777L315.679 385.269Z" fill="black"/>
<path opacity="0.1" d="M324.08 385.281L238.219 422.798L238.442 423.309L324.303 385.791L324.08 385.281Z" fill="black"/>
<path opacity="0.1" d="M342.456 382.161L239.513 426.608L239.734 427.12L342.677 382.673L342.456 382.161Z" fill="black"/>
<path opacity="0.3" d="M84.8335 342.017L182.913 321.405L242.664 332.825L162.294 358.73L84.8335 342.017Z" fill="white"/>
<path d="M357.562 343.315C357.562 343.315 362.634 345.36 359.658 348.519C356.682 351.677 242.647 384.668 242.647 384.668L357.562 343.315Z" fill="#274259"/>
<path d="M406.82 295.679C406.82 295.679 394.192 311.088 404.223 334.396L303.357 378.128L293.677 380.167L289.219 360.669L292.245 336.068V322.603L406.82 295.679Z" fill="#D5D6DB"/>
<path d="M88.3053 285.713L227.907 260.276L412.899 289.735L298.001 331.087L88.3053 285.713Z" fill="#79ACD9"/>
<path d="M88.283 285.713C88.283 285.713 75.2206 310.442 90.2669 333.282L297.293 378.128C297.293 378.128 284.448 358.412 297.979 331.082L88.283 285.713Z" fill="#79ACD9"/>
<path opacity="0.1" d="M88.283 285.713C88.283 285.713 75.2206 310.442 90.2669 333.282L297.293 378.128C297.293 378.128 284.448 358.412 297.979 331.082L232.511 316.915L88.283 285.713Z" fill="black"/>
<path opacity="0.1" d="M94.4687 294.286C94.4687 294.286 87.0124 312.375 94.4687 324.09Z" fill="black"/>
<path d="M297.316 378.128L412.9 328.826C412.9 328.826 419.358 330.218 415.179 334.954C410.999 339.689 299.545 382.863 299.545 382.863L90.2892 333.282L297.316 378.128Z" fill="#79ACD9"/>
<path opacity="0.1" d="M297.316 378.128L412.9 328.826C412.9 328.826 419.358 330.218 415.179 334.954C410.999 339.689 299.545 382.863 299.545 382.863L90.2892 333.282L297.316 378.128Z" fill="black"/>
<path opacity="0.1" d="M287.842 336.068C287.842 336.068 276.697 349.438 287.842 369.493Z" fill="black"/>
<path opacity="0.1" d="M341.805 335.847L291.813 352.521L291.99 353.049L341.982 336.376L341.805 335.847Z" fill="black"/>
<path opacity="0.1" d="M351.826 334.186L291.804 357.002L292.002 357.523L352.024 334.706L351.826 334.186Z" fill="black"/>
<path opacity="0.1" d="M361.013 334.098L292.131 362.283L292.342 362.799L361.225 334.614L361.013 334.098Z" fill="black"/>
<path opacity="0.1" d="M371.02 331.686L292.942 366.944L293.171 367.452L371.249 332.193L371.02 331.686Z" fill="black"/>
<path opacity="0.1" d="M379.413 331.69L293.552 369.207L293.775 369.718L379.636 332.2L379.413 331.69Z" fill="black"/>
<path opacity="0.1" d="M397.794 328.57L294.851 373.017L295.072 373.529L398.014 329.082L397.794 328.57Z" fill="black"/>
<path opacity="0.45" d="M140.171 288.437L238.25 267.825L298.001 279.245L217.631 305.149L140.171 288.437Z" fill="white"/>
<path d="M412.899 289.735C412.899 289.735 417.965 291.779 414.995 294.932C412.025 298.086 298.001 331.082 298.001 331.082L412.899 289.735Z" fill="#79ACD9"/>
<path d="M412.058 234.383C412.058 234.383 399.425 262.053 409.456 285.356L308.589 316.831L298.932 318.876L294.474 299.378L297.455 274.772V261.307L412.058 234.383Z" fill="#D5D6DB"/>
<path d="M93.5604 224.422L233.168 198.98L418.16 228.439L303.256 269.791L93.5604 224.422Z" fill="#274259"/>
<path d="M93.5604 224.417C93.5604 224.417 80.4812 249.146 95.5275 271.986L302.554 316.832C302.554 316.832 289.703 297.116 303.234 269.791L93.5604 224.417Z" fill="#274259"/>
<path opacity="0.1" d="M93.5604 224.417C93.5604 224.417 80.4812 249.146 95.5275 271.986L302.554 316.832C302.554 316.832 289.703 297.116 303.234 269.791L93.5604 224.417Z" fill="black"/>
<path opacity="0.1" d="M99.7294 232.99C99.7294 232.99 92.2675 251.084 99.7294 262.794Z" fill="black"/>
<path d="M302.576 316.832L418.155 279.785C418.155 279.785 424.619 281.178 420.439 285.913C416.26 290.648 304.805 321.567 304.805 321.567L95.5498 271.986L302.576 316.832Z" fill="#274259"/>
<path opacity="0.1" d="M302.576 316.832L418.155 279.785C418.155 279.785 424.619 281.178 420.439 285.913C416.26 290.648 304.805 321.567 304.805 321.567L95.5498 271.986L302.576 316.832Z" fill="black"/>
<path opacity="0.1" d="M293.103 274.772C293.103 274.772 281.957 288.142 293.103 308.197Z" fill="black"/>
<path opacity="0.1" d="M347.068 274.55L297.075 291.223L297.252 291.752L347.244 275.079L347.068 274.55Z" fill="black"/>
<path opacity="0.1" d="M357.084 272.891L297.063 295.708L297.261 296.228L357.282 273.412L357.084 272.891Z" fill="black"/>
<path opacity="0.1" d="M366.267 272.806L297.384 300.991L297.595 301.507L366.478 273.322L366.267 272.806Z" fill="black"/>
<path opacity="0.1" d="M376.281 270.389L298.203 305.647L298.432 306.155L376.51 270.897L376.281 270.389Z" fill="black"/>
<path opacity="0.1" d="M384.677 270.399L298.816 307.916L299.039 308.426L384.9 270.909L384.677 270.399Z" fill="black"/>
<path opacity="0.1" d="M403.056 267.283L300.113 311.73L300.334 312.241L403.276 267.794L403.056 267.283Z" fill="black"/>
<path opacity="0.3" d="M145.426 227.141L243.505 206.528L303.256 217.949L222.886 243.853L145.426 227.141Z" fill="white"/>
<path d="M418.155 228.439C418.155 228.439 423.226 230.483 420.25 233.642C417.274 236.801 303.256 269.791 303.256 269.791L418.155 228.439Z" fill="#274259"/>
<path d="M172.988 59.3296C172.988 59.3296 151.812 58.0539 154.286 72.9058C154.286 72.9058 153.79 75.5297 156.17 76.7219C156.17 76.7219 156.209 75.6077 158.343 75.9921C159.105 76.1229 159.88 76.1603 160.65 76.1035C161.689 76.0324 162.677 75.6257 163.465 74.9448V74.9448C163.465 74.9448 169.422 72.4824 171.74 62.7446C171.74 62.7446 173.456 60.6221 173.412 60.0761L169.823 61.6025C169.823 61.6025 171.043 64.1819 170.085 66.3266C170.085 66.3266 169.968 61.6973 169.277 61.8031C169.138 61.8031 167.421 62.7 167.421 62.7C167.421 62.7 169.522 67.1957 167.934 70.4602C167.934 70.4602 168.536 64.9228 166.764 63.0231L164.245 64.4938C164.245 64.4938 166.702 69.1344 165.036 72.9225C165.036 72.9225 165.465 67.1121 163.715 64.8504L161.431 66.633C161.431 66.633 163.743 71.2067 162.333 74.3487C162.333 74.3487 162.149 67.5857 160.94 67.0731C160.94 67.0731 158.94 68.8335 158.639 69.5577C158.639 69.5577 160.221 72.9002 159.235 74.6328C159.235 74.6328 158.639 70.126 158.12 70.1037C158.12 70.1037 156.131 73.0897 155.925 75.1174C156.021 73.227 156.611 71.3947 157.636 69.8029C156.489 70.0197 155.431 70.5678 154.593 71.3794C154.593 71.3794 154.899 69.268 158.131 69.0842C158.131 69.0842 159.775 66.8169 160.216 66.6832C160.216 66.6832 157 66.4102 155.055 67.2737C155.055 67.2737 156.772 65.2849 160.801 66.1595L163.03 64.3211C163.03 64.3211 158.806 63.764 157.011 64.3824C157.011 64.3824 159.079 62.622 163.637 63.9033L166.095 62.4382C166.095 62.4382 162.489 61.6638 160.344 61.9424C160.344 61.9424 162.606 60.7223 166.814 62.0426L168.564 61.2572C168.564 61.2572 165.928 60.7391 165.153 60.6555C164.378 60.5719 164.339 60.3602 164.339 60.3602C166.012 60.0856 167.729 60.2784 169.299 60.9173C169.299 60.9173 173.061 59.5636 172.988 59.3296Z" fill="#274259"/>
<path opacity="0.1" d="M470.906 120.375C470.906 120.375 449.73 119.099 452.204 133.951C452.204 133.951 451.708 136.575 454.087 137.767C454.087 137.767 454.126 136.653 456.261 137.038C457.023 137.165 457.797 137.203 458.568 137.149C459.597 137.073 460.575 136.667 461.354 135.99V135.99C461.354 135.99 467.317 133.528 469.63 123.79C469.63 123.79 471.346 121.668 471.302 121.122L467.724 122.648C467.724 122.648 468.944 125.227 467.986 127.372C467.986 127.372 467.869 122.743 467.183 122.849C467.044 122.849 465.322 123.746 465.322 123.746C465.322 123.746 467.423 128.241 465.84 131.506C465.84 131.506 466.442 125.968 464.664 124.069L462.146 125.539C462.146 125.539 464.603 130.18 462.937 133.968C462.937 133.968 463.366 128.158 461.616 125.896L459.337 127.679C459.337 127.679 461.644 132.252 460.234 135.394C460.234 135.394 460.05 128.631 458.841 128.119C458.841 128.119 456.846 129.879 456.539 130.603C456.539 130.603 458.122 133.946 457.141 135.678C457.141 135.678 456.539 131.171 456.027 131.149C456.027 131.149 454.037 134.135 453.831 136.163C453.928 134.272 454.519 132.439 455.547 130.848C454.399 131.066 453.34 131.614 452.499 132.425C452.499 132.425 452.811 130.314 456.038 130.13C456.038 130.13 457.682 127.862 458.122 127.723C458.122 127.723 454.912 127.456 452.962 128.319C452.962 128.319 454.678 126.33 458.707 127.205L460.936 125.367C460.936 125.367 456.707 124.81 454.918 125.428C454.918 125.428 456.98 123.668 461.544 124.949L463.996 123.484C463.996 123.484 460.39 122.709 458.245 122.988C458.245 122.988 460.507 121.768 464.715 123.088L466.47 122.303C466.47 122.303 463.829 121.785 463.054 121.701C462.279 121.617 462.24 121.406 462.24 121.406C463.913 121.128 465.631 121.32 467.2 121.963C467.2 121.963 470.973 120.609 470.906 120.375Z" fill="#274259"/>
<path opacity="0.1" d="M208.654 151.082C208.654 151.082 199.425 131.957 187.678 141.383C187.678 141.383 185.142 142.23 185.265 144.887C185.265 144.887 186.24 144.38 186.937 146.43C187.197 147.155 187.541 147.847 187.962 148.491C188.532 149.365 189.372 150.03 190.353 150.385C190.353 150.385 195.407 154.385 205.043 151.656C205.043 151.656 207.734 152.118 208.175 151.795L205.098 149.416C205.098 149.416 203.427 151.739 201.097 151.945C201.097 151.945 205.087 149.589 204.658 149.043C204.569 148.931 202.986 147.856 202.986 147.856C202.986 147.856 200.083 151.884 196.461 152.09C196.461 152.09 201.588 149.917 202.379 147.438L199.871 145.957C199.871 145.957 197.012 150.369 192.894 150.759C192.894 150.759 198.177 148.302 199.297 145.672L196.633 144.558C196.633 144.558 193.763 148.803 190.331 149.11C190.331 149.11 196.149 145.65 196.004 144.341C196.004 144.341 193.49 143.461 192.71 143.544C192.71 143.544 190.581 146.547 188.575 146.547C188.575 146.547 192.214 143.823 191.991 143.383C191.991 143.383 188.414 143.104 186.53 143.94C188.227 143.097 190.116 142.712 192.008 142.826C191.257 141.931 190.262 141.275 189.144 140.937C189.144 140.937 191.139 140.18 192.872 142.904C192.872 142.904 195.658 143.232 195.987 143.55C195.987 143.55 194.655 140.62 192.955 139.344C192.955 139.344 195.53 139.862 196.706 143.801L199.409 144.87C199.409 144.87 197.854 140.904 196.422 139.65C196.422 139.65 198.963 140.592 200.072 145.221L202.546 146.647C202.546 146.647 201.471 143.121 200.178 141.388C200.178 141.388 202.345 142.77 203.243 147.082L204.786 148.229C204.786 148.229 203.95 145.672 203.672 144.959C203.393 144.246 203.532 144.101 203.532 144.101C204.593 145.424 205.264 147.015 205.472 148.697C205.472 148.697 208.453 151.249 208.654 151.082Z" fill="#274259"/>
<path opacity="0.1" d="M422.524 93.3565C422.524 93.3565 413.301 74.2317 401.548 83.6576C401.548 83.6576 399.018 84.5044 399.135 87.1617C399.135 87.1617 400.116 86.6603 400.807 88.7048C401.066 89.4325 401.412 90.1264 401.838 90.7716C402.406 91.6439 403.243 92.307 404.223 92.6601V92.6601C404.223 92.6601 409.283 96.66 418.912 93.9358C418.912 93.9358 421.604 94.3927 422.05 94.0695L418.99 91.6852C418.99 91.6852 417.319 94.0138 414.995 94.22C414.995 94.22 418.979 91.8579 418.55 91.312C418.461 91.2006 416.878 90.1254 416.878 90.1254C416.878 90.1254 413.981 94.1531 410.353 94.3592C410.353 94.3592 415.485 92.1866 416.276 89.7131L413.73 88.2424C413.73 88.2424 410.877 92.649 406.753 93.0445C406.753 93.0445 412.036 90.5822 413.161 87.9527L410.492 86.8386C410.492 86.8386 407.622 91.0891 404.195 91.39C404.195 91.39 410.007 87.9305 409.862 86.6269C409.862 86.6269 407.355 85.7411 406.574 85.8302C406.574 85.8302 404.446 88.8274 402.434 88.8274C402.434 88.8274 406.078 86.1032 405.855 85.6631C405.855 85.6631 402.278 85.3846 400.389 86.2202C402.086 85.3766 403.975 84.9925 405.867 85.106C405.119 84.2107 404.125 83.5541 403.008 83.2175C403.008 83.2175 405.003 82.4599 406.736 85.184C406.736 85.184 409.522 85.5183 409.851 85.8358C409.851 85.8358 408.519 82.9 406.814 81.6242C406.814 81.6242 409.389 82.1479 410.564 86.1088L413.273 87.1784C413.273 87.1784 411.718 83.2064 410.286 81.9529C410.286 81.9529 412.827 82.8944 413.93 87.5238L416.41 88.9499C416.41 88.9499 415.329 85.4291 414.036 83.691C414.036 83.691 416.21 85.0726 417.101 89.3845L418.645 90.532C418.645 90.532 417.815 87.975 417.53 87.262C417.246 86.5489 417.391 86.4096 417.391 86.4096C418.448 87.7335 419.117 89.3244 419.325 91.0056C419.325 91.0056 422.351 93.5347 422.524 93.3565Z" fill="#274259"/>
<path opacity="0.1" d="M451.998 187.955C451.998 187.955 442.775 168.825 431.005 178.251C431.005 178.251 428.475 179.098 428.592 181.755C428.592 181.755 429.573 181.253 430.264 183.298C430.522 184.025 430.866 184.719 431.289 185.365C431.858 186.237 432.695 186.9 433.675 187.253C433.675 187.253 438.735 191.259 448.37 188.529C448.37 188.529 451.056 188.991 451.502 188.663L448.426 186.284C448.426 186.284 446.754 188.613 444.424 188.819C444.424 188.819 448.409 186.457 447.98 185.911C447.891 185.799 446.308 184.724 446.308 184.724C446.308 184.724 443.41 188.752 439.782 188.964C439.782 188.964 444.915 186.785 445.706 184.312L443.193 182.83C443.193 182.83 440.34 187.242 436.216 187.632C436.216 187.632 441.499 185.17 442.624 182.54L439.955 181.426C439.955 181.426 437.085 185.671 433.658 185.978C433.658 185.978 439.476 182.518 439.331 181.209C439.331 181.209 436.818 180.323 436.037 180.412C436.037 180.412 433.909 183.409 431.897 183.409C431.897 183.409 435.541 180.685 435.318 180.245C435.318 180.245 431.741 179.967 429.852 180.802C431.551 179.959 433.441 179.575 435.335 179.688C434.586 178.791 433.59 178.135 432.471 177.8C432.471 177.8 434.466 177.036 436.199 179.766C436.199 179.766 438.985 180.095 439.314 180.412C439.314 180.412 437.982 177.482 436.283 176.201C436.283 176.201 438.857 176.724 440.033 180.685L442.736 181.755C442.736 181.755 441.181 177.783 439.749 176.535C439.749 176.535 442.29 177.471 443.393 182.106L445.873 183.526C445.873 183.526 444.792 180.006 443.499 178.268C443.499 178.268 445.673 179.649 446.57 183.966L448.113 185.081C448.113 185.081 447.278 182.524 446.999 181.811C446.72 181.098 446.86 180.958 446.86 180.958C447.919 182.281 448.589 183.872 448.793 185.554C448.793 185.554 451.825 188.122 451.998 187.955Z" fill="#274259"/>
<path opacity="0.1" d="M112.541 436.844C119.617 436.844 125.353 436.204 125.353 435.413C125.353 434.622 119.617 433.981 112.541 433.981C105.465 433.981 99.7294 434.622 99.7294 435.413C99.7294 436.204 105.465 436.844 112.541 436.844Z" fill="#274259"/>
<path opacity="0.1" d="M28.5546 412.511C35.6303 412.511 41.3663 411.87 41.3663 411.079C41.3663 410.289 35.6303 409.648 28.5546 409.648C21.4789 409.648 15.7429 410.289 15.7429 411.079C15.7429 411.87 21.4789 412.511 28.5546 412.511Z" fill="#274259"/>
<path opacity="0.1" d="M176.56 453.006C183.636 453.006 189.372 452.365 189.372 451.574C189.372 450.783 183.636 450.142 176.56 450.142C169.485 450.142 163.749 450.783 163.749 451.574C163.749 452.365 169.485 453.006 176.56 453.006Z" fill="#274259"/>
<path opacity="0.1" d="M504.626 417.803C511.702 417.803 517.438 417.162 517.438 416.372C517.438 415.581 511.702 414.94 504.626 414.94C497.551 414.94 491.815 415.581 491.815 416.372C491.815 417.162 497.551 417.803 504.626 417.803Z" fill="#274259"/>
<path opacity="0.1" d="M398.015 410.856C405.09 410.856 410.826 410.215 410.826 409.425C410.826 408.634 405.09 407.993 398.015 407.993C390.939 407.993 385.203 408.634 385.203 409.425C385.203 410.215 390.939 410.856 398.015 410.856Z" fill="#274259"/>
<path opacity="0.1" d="M329.047 444.738C337.415 444.738 344.199 443.574 344.199 442.137C344.199 440.7 337.415 439.535 329.047 439.535C320.678 439.535 313.895 440.7 313.895 442.137C313.895 443.574 320.678 444.738 329.047 444.738Z" fill="#274259"/>
<path d="M335.806 415.987C335.806 415.987 314.708 426.884 325.608 439.719C325.608 439.719 326.634 442.505 329.598 442.31C329.598 442.31 329.008 441.229 331.27 440.365C332.075 440.054 332.84 439.648 333.55 439.156C334.508 438.494 335.224 437.538 335.589 436.432V436.432C335.589 436.432 339.902 430.661 336.559 419.982C336.559 419.982 336.993 416.962 336.615 416.472L334.051 419.987C334.051 419.987 336.698 421.764 337.005 424.377C337.005 424.377 334.218 419.993 333.661 420.477C333.538 420.578 332.39 422.399 332.39 422.399C332.39 422.399 336.982 425.513 337.322 429.558C337.322 429.558 334.736 423.892 331.945 423.085L330.345 425.937C330.345 425.937 335.361 428.99 335.918 433.58C335.918 433.58 333.003 427.758 330.028 426.583L328.852 429.597C328.852 429.597 333.689 432.672 334.135 436.494C334.135 436.494 330.089 430.104 328.634 430.304C328.634 430.304 327.72 433.134 327.843 434.009C327.843 434.009 331.259 436.293 331.32 438.538C331.32 438.538 328.166 434.555 327.681 434.817C327.681 434.817 327.481 438.822 328.45 440.906C328.45 440.906 326.779 437.931 327.052 434.817C326.074 435.681 325.371 436.812 325.029 438.07C325.029 438.07 324.12 435.87 327.113 433.842C327.113 433.842 327.397 430.728 327.743 430.343C327.743 430.343 324.505 431.925 323.129 433.864C323.129 433.864 323.636 430.973 328.027 429.536L329.142 426.483C329.142 426.483 324.75 428.343 323.396 429.981C323.396 429.981 324.371 427.112 329.487 425.736L331.003 422.951C331.003 422.951 327.102 424.266 325.196 425.736C325.196 425.736 326.673 423.268 331.471 422.132L332.702 420.377C332.702 420.377 329.872 421.385 329.08 421.747C328.289 422.11 328.133 421.931 328.133 421.931C329.579 420.708 331.337 419.91 333.21 419.625C333.21 419.625 336.002 416.177 335.806 415.987Z" fill="#274259"/>
<path d="M398.427 210.183C394.783 200.284 374.721 199.353 366.016 201.877C359.83 203.676 346.79 205.704 339.824 206.723L339.373 206.294C340.276 206.027 340.298 205.37 340.187 204.395C340.122 203.11 340.14 201.822 340.242 200.54C344.511 201.866 348.312 198.729 348.312 198.729C353.327 196.501 351.978 186.964 352.937 184.356C353.656 182.407 354.431 170.92 354.776 165.193H354.848L354.887 163.271C354.938 162.441 354.96 161.956 354.96 161.956C354.96 161.956 355.45 147.951 356.409 145.115C357.3 142.508 358.025 129.372 358.136 127.289C358.136 127.11 358.136 127.016 358.136 127.016L358.064 125.801C358.114 124.915 358.136 123.929 358.131 122.893C358.131 118.13 357.635 112.13 357.574 111.161C357.574 111.022 357.574 110.855 357.574 110.654C357.613 108.621 357.356 98.4371 348.691 94.5876C345.497 93.1615 341.658 91.4624 337.941 89.8078C336.982 81.5351 334.792 73.3069 334.982 64.9729C334.982 63.7195 335.093 62.4661 335.216 61.2182C335.216 61.5803 335.177 61.948 335.171 62.3324C335.171 63.1401 335.171 63.9535 335.171 64.7612C335.5 54.3382 339.44 43.8594 339.072 33.6591C339.039 34.6563 338.966 35.6591 338.871 36.6618C339.064 33.2117 338.703 29.753 337.802 26.417C337.467 25.2416 337.016 24.0271 336.052 23.2416C335.14 22.609 334.095 22.1953 332.998 22.0328C330.361 21.358 327.682 20.8592 324.979 20.5398C324.568 19.2828 323.958 18.0998 323.173 17.0357C317.522 9.28106 309.152 1.99438 299.255 0.323123C294.29 -0.512506 288.578 0.183851 285.201 3.73249C284.848 4.04423 284.517 4.37923 284.209 4.73524C282.392 6.90231 281.612 9.74902 279.751 11.9105C279.628 12.0554 279.489 12.1891 279.355 12.3283C275.71 15.5873 270.032 16.2669 265.98 19.1916C265.266 19.7167 264.597 20.2999 263.98 20.9353C262.347 22.5525 260.883 24.3313 259.611 26.2443C257.788 28.8069 255.916 31.4754 255.336 34.5338C254.172 40.6617 258.346 46.4721 259.12 52.6391C260.848 66.4381 245.573 78.6828 248.465 92.298C249.237 95.6428 250.941 98.7005 253.38 101.117C247.423 106.509 242.352 111.74 242.352 111.74V112.052H241.41L241.505 113.166H241.41L241.928 119.211L241.41 128.013C241.41 128.013 241.41 128.107 241.41 128.286V128.33V128.57C241.41 128.57 241.41 128.665 241.41 128.843H241.444C241.616 132.068 242.302 143.667 243.115 146.112C244.074 148.948 244.559 162.953 244.559 162.953C244.559 162.953 245.618 182.746 246.587 185.365C247.557 187.983 246.18 197.493 251.213 199.738C252.685 200.866 254.428 201.589 256.267 201.832C256.011 203.916 256.172 205.425 257.003 205.899C257.358 206.108 257.761 206.223 258.173 206.233C257.832 206.739 257.528 207.27 257.265 207.821C255.267 207.612 253.305 207.15 251.424 206.445C246.019 204.217 228.08 199.203 222.87 202.729C217.659 206.255 205.121 209.453 210.911 223.648C216.701 237.842 219.398 238.199 219.398 238.199C221.18 239.492 222.744 241.063 224.029 242.85C225.768 245.463 241.967 251.441 246.019 251.441C247.741 251.414 249.463 251.5 251.174 251.697C251.174 251.697 246.777 255.552 247.362 257.791C247.947 260.031 246.024 277.958 246.024 277.958C246.024 277.958 250.483 282.448 252.388 276.56L252.455 276.649C252.812 277.134 254.74 279.323 258.368 276.56C259.853 275.434 261.43 274.435 263.082 273.574L280.648 271.089C282.479 270.975 284.315 270.962 286.148 271.05C288.934 271.279 291.671 269.63 293.393 268.354C297.032 269.735 301.122 271.245 303.067 271.797C307.012 272.911 325.146 277.774 329.387 276.253C330.268 275.903 331.052 275.345 331.672 274.627L335.717 274.755L333.823 275.134C333.823 275.134 337.512 275.195 342.527 275.262L342.315 275.384L348.607 275.329C357.813 275.412 368.156 275.44 369.516 275.134C371.645 274.66 382.706 274.994 385.967 275.134H386.875C386.875 275.134 399.029 272.71 394.014 260.382C390.157 250.911 378.304 248.159 373.043 247.402C374.526 247.107 375.802 246.878 376.649 246.744C380.321 246.187 387.454 242.845 388.034 241.703C388.614 240.561 394.593 237.246 396.137 235.358C397.68 233.469 402.088 220.082 398.427 210.183ZM297.756 237.887L297.16 238.082L296.758 238.215L295.989 238.973C295.376 238.561 294.719 238.126 294.033 237.681C295.243 237.753 296.485 237.826 297.756 237.887Z" fill="url(#paint0_linear)"/>
<path d="M333.288 179.148C333.288 179.148 341.814 201.431 346.662 199.203C351.51 196.974 350.195 187.504 351.12 184.908C352.045 182.312 353.071 162.625 353.071 162.625C353.071 162.625 353.539 148.697 354.464 145.879C355.322 143.288 356.019 130.224 356.136 128.169C356.136 127.99 356.136 127.896 356.136 127.896L355.216 111.74L350.011 110.442L337.941 114.899L336.269 124.442L335.617 128.169L335.338 129.756L333.288 179.148Z" fill="#BE6F72"/>
<path opacity="0.1" d="M336.096 175.415C336.096 175.415 344.232 182.072 346.684 182.657C349.136 183.242 350.641 188.434 350.641 188.434" fill="black"/>
<path d="M266.61 180.123C266.61 180.123 258.084 202.406 253.236 200.178C248.387 197.949 249.702 188.479 248.777 185.883C247.852 183.287 246.827 163.599 246.827 163.599C246.827 163.599 246.359 149.672 245.434 146.853C244.576 144.263 243.879 131.199 243.762 129.144C243.762 128.965 243.762 128.871 243.762 128.871L244.687 112.715L249.892 111.417L261.962 115.874L263.634 125.417L264.286 129.144L264.565 130.731L266.61 180.123Z" fill="#BE6F72"/>
<path d="M322.131 60.8728H303.1V90.5265H322.131V60.8728Z" fill="#3E373A"/>
<path opacity="0.1" d="M322.131 60.8728H303.1V90.5265H322.131V60.8728Z" fill="black"/>
<path d="M263.266 202.317C263.266 202.317 256.763 209.464 259.176 210.762C261.589 212.06 277.198 236.388 277.198 236.388C277.198 236.388 328.467 242.7 338.136 233.23C347.805 223.759 347.609 206.84 347.609 206.84C347.609 206.84 339.841 208.512 338.994 207.604C338.147 206.696 333.494 202.317 333.494 202.317C333.494 202.317 267.725 198.328 263.266 202.317Z" fill="#4B4B5B"/>
<path opacity="0.02" d="M263.266 202.317C263.266 202.317 256.763 209.464 259.176 210.762C261.589 212.06 277.198 236.388 277.198 236.388C277.198 236.388 328.467 242.7 338.136 233.23C347.805 223.759 347.609 206.84 347.609 206.84C347.609 206.84 339.841 208.512 338.994 207.604C338.147 206.696 333.494 202.317 333.494 202.317C333.494 202.317 267.725 198.328 263.266 202.317Z" fill="black"/>
<path d="M355.562 111.974L338.844 125.344L333.789 125.712L331.933 125.846L300.765 128.13L268.443 125.768L263.634 125.417L257.504 124.971L244.687 112.715C244.687 112.715 253.759 103 261.706 96.4427C264.838 93.8523 267.797 91.7576 269.954 90.9331L270.321 90.805C271.678 90.2762 272.889 89.4322 273.855 88.3427C280.129 81.8749 285.931 65.9144 285.931 65.9144C285.931 65.9144 313.61 51.6196 310.267 70.3711C306.923 89.1226 322.711 84.4877 322.711 84.4877L327.916 86.8608L329.972 87.8023L335.216 90.2034L347.047 95.6294C356.331 99.9022 355.562 111.974 355.562 111.974Z" fill="#BE6F72"/>
<path opacity="0.1" d="M299.467 81.1841C313.215 81.1841 324.36 70.0427 324.36 56.2991C324.36 42.5555 313.215 31.4141 299.467 31.4141C285.719 31.4141 274.573 42.5555 274.573 56.2991C274.573 70.0427 285.719 81.1841 299.467 81.1841Z" fill="black"/>
<path opacity="0.1" d="M355.601 129.701H243.762C243.762 129.522 243.762 129.428 243.762 129.428L244.687 113.272C244.687 113.272 253.759 103.557 261.706 96.9998L331.922 94.2144L335.188 90.7716L347.019 96.1976C356.308 100.465 355.562 112.537 355.562 112.537C355.562 112.537 356.832 126.525 355.601 129.701Z" fill="black"/>
<path d="M355.601 129.144H243.762C243.762 128.965 243.762 128.871 243.762 128.871L244.687 112.715C244.687 112.715 253.759 103 261.706 96.4427L331.922 93.6573L335.188 90.2145L347.019 95.6405C356.308 99.9078 355.562 111.98 355.562 111.98C355.562 111.98 356.832 125.968 355.601 129.144Z" fill="#E7C7CA"/>
<path opacity="0.1" d="M281.539 83.8415C281.539 83.8415 299.183 106.314 322.683 83.3791C346.183 60.4438 325.285 134.536 325.285 134.536L274.573 140.553L281.539 83.8415Z" fill="black"/>
<path d="M281.539 84.9556C281.539 84.9556 299.183 107.428 322.683 84.4932C346.183 61.558 325.285 135.65 325.285 135.65L274.573 141.667L281.539 84.9556Z" fill="#E7C7CA"/>
<path opacity="0.1" d="M329.944 88.8998L331.811 117.361L333.811 126.832L335.338 134.074C335.338 134.074 339.239 189.782 338.125 192.568C337.01 195.353 338.682 197.582 338.916 199.064C339.15 200.545 338.682 204.267 338.866 205.938C339.05 207.609 338.866 208.35 334.597 207.754C330.328 207.158 324.377 206.122 324.377 206.122C324.377 206.122 309.33 207.236 304.131 205.381C298.932 203.526 289.085 203.52 289.085 203.52C289.085 203.52 274.222 203.893 269.396 203.336C264.57 202.779 261.962 209.28 258.808 207.42C255.654 205.559 262.52 187.554 264.749 182.351C266.978 177.148 261.778 163.967 261.778 163.967L268.466 126.882L269.954 118.475V92.0473L270.321 91.9192C271.678 91.3904 272.889 90.5463 273.855 89.4569L275.526 116.052L327.91 117.913V87.9806" fill="black"/>
<path d="M329.944 87.7856L331.811 116.247L333.811 125.718L335.338 132.96C335.338 132.96 339.239 188.668 338.125 191.454C337.01 194.239 338.682 196.468 338.916 197.949C339.15 199.431 338.682 203.153 338.866 204.824C339.05 206.495 338.866 207.236 334.597 206.64C330.328 206.044 324.377 205.008 324.377 205.008C324.377 205.008 309.33 206.122 304.131 204.267C298.932 202.412 289.085 202.406 289.085 202.406C289.085 202.406 274.222 202.779 269.396 202.222C264.57 201.665 261.962 208.166 258.808 206.306C255.654 204.445 262.52 186.44 264.749 181.237C266.978 176.034 261.778 162.853 261.778 162.853L268.466 125.768L269.954 117.361V90.9331L270.321 90.805C271.678 90.2762 272.889 89.4322 273.855 88.3427L275.526 114.938L327.91 116.799V86.8664" fill="#E7C7CA"/>
<path opacity="0.1" d="M335.968 28.3891C335.65 27.2248 335.21 26.0159 334.296 25.236C333.424 24.6095 332.416 24.1973 331.354 24.0327C328.812 23.3645 326.228 22.8694 323.619 22.5508C323.246 21.3138 322.682 20.1428 321.947 19.0802C316.486 11.3701 308.405 4.10014 298.898 2.45674C293.922 1.59326 288.154 2.36761 284.967 6.28949C283.217 8.44541 282.464 11.3033 280.698 13.4202C277.293 17.5315 271.146 18.0384 266.855 21.2194C264.565 22.8907 262.904 25.314 261.282 27.6649C259.527 30.2108 257.722 32.8625 257.164 35.9042C256.05 41.982 260.068 47.7757 260.809 53.9092C262.481 67.6302 247.769 79.8026 250.549 93.3397C252.171 101.234 259.466 106.793 267.011 109.612C269.669 110.609 272.707 111.601 273.949 114.152C274.507 115.267 274.601 116.554 275.125 117.679C276.886 121.434 282.676 121.578 285.786 118.843C288.895 116.108 289.876 111.685 290.244 107.557C291.737 89.5293 284.515 71.7192 285.357 53.6474C285.607 48.1824 287.145 41.982 292.044 39.5085C298.636 36.166 306.566 41.7369 313.822 40.6728C317.256 49.0243 317.984 58.2415 315.906 67.0286C314.753 71.8362 312.758 76.499 312.613 81.4571C312.395 89.0056 316.469 95.9023 319.991 102.576C320.747 103.824 321.252 105.207 321.479 106.649C321.534 108.111 321.262 109.567 320.682 110.91C318.693 116.264 315.26 121.233 314.87 126.932C314.755 127.597 314.905 128.281 315.288 128.837C315.68 129.209 316.187 129.436 316.725 129.483C322.744 130.514 327.949 125.183 330.886 119.829C334.16 113.916 336.068 107.345 336.47 100.599C337.077 89.2563 333.009 78.0979 333.26 66.7445C333.55 53.8368 339.384 40.84 335.968 28.3891Z" fill="black"/>
<path d="M336.525 27.832C336.208 26.6677 335.768 25.4588 334.854 24.6789C333.981 24.0525 332.973 23.6403 331.911 23.4756C329.369 22.8074 326.785 22.3124 324.176 21.9938C323.804 20.7568 323.239 19.5857 322.504 18.5231C317.043 10.813 308.963 3.54308 299.456 1.89967C294.479 1.03619 288.711 1.81054 285.524 5.73242C283.774 7.88835 283.022 10.7462 281.255 12.8631C277.85 16.9744 271.704 17.4814 267.413 20.6623C265.122 22.3336 263.461 24.7569 261.84 27.1078C260.084 29.6537 258.279 32.3054 257.722 35.3471C256.607 41.4249 260.625 47.2186 261.366 53.3521C263.038 67.0732 248.326 79.2455 251.107 92.7827C252.728 100.677 260.023 106.236 267.569 109.055C270.227 110.052 273.264 111.044 274.507 113.595C275.064 114.71 275.159 115.996 275.682 117.122C277.443 120.877 283.233 121.021 286.343 118.286C289.453 115.551 290.433 111.128 290.801 107C292.295 88.9722 285.072 71.1622 285.914 53.0903C286.165 47.6253 287.703 41.4249 292.601 38.9515C299.194 35.6089 307.124 41.1798 314.379 40.1158C317.813 48.4673 318.542 57.6844 316.464 66.4715C315.31 71.2792 313.315 75.942 313.17 80.9C312.953 88.4485 317.026 95.3453 320.548 102.019C321.304 103.267 321.81 104.65 322.036 106.091C322.092 107.554 321.82 109.01 321.239 110.353C319.25 115.707 315.817 120.676 315.427 126.375C315.313 127.04 315.463 127.724 315.845 128.28C316.238 128.652 316.744 128.879 317.283 128.926C323.301 129.957 328.506 124.626 331.443 119.272C334.717 113.359 336.625 106.788 337.027 100.042C337.634 88.6992 333.566 77.5408 333.817 66.1874C334.107 53.2797 339.941 40.2829 336.525 27.832Z" fill="#3E373A"/>
<path d="M324.215 274.493L346.322 275.2L343.151 258.811L326.216 260.421L324.215 274.493Z" fill="#C3C7D9"/>
<path d="M392.715 235.647C391.227 237.502 385.471 240.845 384.913 241.959C384.356 243.073 377.485 246.416 373.952 246.973C370.419 247.53 359.279 249.948 357.234 251.246C355.768 252.182 344.004 255.145 336.275 256.789C334.181 257.284 332.062 257.665 329.927 257.931C326.584 258.115 289.993 245.675 289.993 245.675L297.048 238.433L297.438 238.299C299.433 237.625 308.651 234.511 313.766 233.029C319.529 231.358 326.216 224.489 326.216 224.489C326.216 224.489 336.057 221.146 337.361 220.773C338.665 220.4 334.018 207.776 334.018 207.776C334.018 207.776 355.378 204.813 363.737 202.3C372.096 199.788 391.417 200.718 394.944 210.562C398.472 220.405 394.225 233.792 392.715 235.647Z" fill="#4B4B5B"/>
<path d="M295.376 267.028C295.376 267.028 291.108 271.485 286.833 271.117C282.559 270.749 267.613 272.231 267.613 272.231C264.905 273.311 262.368 274.781 260.084 276.593C256.59 279.345 254.735 277.15 254.389 276.682L254.328 276.593C252.467 282.448 248.198 277.986 248.198 277.986C248.198 277.986 250.054 260.159 249.485 257.931C248.917 255.702 253.158 251.875 253.158 251.875L258.173 250.6L270.879 247.346L289.085 253.658L295.376 267.028Z" fill="#E7C7CA"/>
<path opacity="0.1" d="M258.151 250.6L254.389 276.682L254.328 276.593C252.467 282.448 248.198 277.986 248.198 277.986C248.198 277.986 250.054 260.159 249.485 257.931C248.917 255.702 253.158 251.875 253.158 251.875L258.151 250.6Z" fill="black"/>
<path opacity="0.1" d="M284.443 176.407C284.443 176.407 294.284 179.749 302.833 176.407Z" fill="black"/>
<path opacity="0.1" d="M318.041 182.724C318.041 182.724 322.125 184.763 325.285 182.724Z" fill="black"/>
<path opacity="0.1" d="M318.041 187.56C318.041 187.56 324.912 188.479 326.216 186.624Z" fill="black"/>
<path opacity="0.1" d="M315.812 197.949C315.812 197.949 328.718 196.278 331.922 194.05Z" fill="black"/>
<path opacity="0.1" d="M276.429 194.05C276.429 194.05 283.674 198.133 289.062 197.949Z" fill="black"/>
<path opacity="0.1" d="M336.269 256.789C334.175 257.284 332.057 257.665 329.922 257.931C326.578 258.115 289.988 245.675 289.988 245.675L297.043 238.433L297.433 238.299C298.547 239.085 299.461 239.759 300.113 240.271C303.184 242.689 306.148 239.53 307.263 239.53C308.378 239.53 318.035 247.513 318.035 247.513C318.035 247.513 326.951 249.558 328.439 251.413C329.927 253.268 335.127 252.9 336.052 254.198C336.33 254.599 336.364 255.585 336.269 256.789Z" fill="black"/>
<path d="M267.613 208.534C267.613 208.534 258.596 209.052 253.397 206.863C248.198 204.673 230.922 199.621 225.907 203.169C220.891 206.718 208.815 209.854 214.388 223.971C219.961 238.087 222.563 238.455 222.563 238.455C224.287 239.748 225.793 241.309 227.021 243.079C228.693 245.68 244.297 251.619 248.198 251.619C252.099 251.619 258.97 251.619 268.627 258.304C278.285 264.989 287.017 265.736 287.017 265.736C287.017 265.736 299.277 270.749 303.095 271.864C306.912 272.978 324.355 277.802 328.445 276.32C332.535 274.838 335.132 265.546 335.132 265.546C335.132 265.546 336.988 257.19 336.057 255.892C335.127 254.594 329.927 254.962 328.445 253.106C326.963 251.251 318.041 249.207 318.041 249.207C318.041 249.207 308.405 241.218 307.291 241.218C306.176 241.218 303.212 244.371 300.141 241.959C294.025 237.43 287.598 233.335 280.91 229.703C273.855 225.987 267.613 208.534 267.613 208.534Z" fill="#4B4B5B"/>
<path opacity="0.1" d="M249.485 213.921C251.091 213.593 252.75 213.64 254.334 214.059C255.919 214.477 257.385 215.255 258.619 216.333C263.077 220.049 278.079 227.508 278.079 227.508" fill="black"/>
<path opacity="0.1" d="M360.951 213.687C360.951 213.687 341.073 216.695 337.361 220.779Z" fill="black"/>
<path d="M383.799 275.2H382.924C379.781 275.089 369.131 274.755 367.081 275.2C364.668 275.757 332.714 275.2 332.714 275.2L338.961 273.902C338.961 273.902 336.642 265.78 338.114 265.106C338.114 265.106 329.754 259.602 336.057 255.886C342.36 252.171 349.153 253.736 349.153 253.736L364.974 248.377L368.011 247.346C368.011 247.346 385.844 248.276 390.67 260.532C395.496 272.788 383.799 275.2 383.799 275.2Z" fill="#E7C7CA"/>
<path opacity="0.1" d="M383.799 275.2H382.924C388.112 270.922 399.848 257.897 364.974 248.405L368.011 247.374C368.011 247.374 385.844 248.304 390.67 260.56C395.496 272.816 383.799 275.2 383.799 275.2Z" fill="black"/>
<path d="M351.014 260.761C351.553 260.761 351.99 260.324 351.99 259.786C351.99 259.247 351.553 258.811 351.014 258.811C350.476 258.811 350.039 259.247 350.039 259.786C350.039 260.324 350.476 260.761 351.014 260.761Z" fill="#4B4B5B"/>
<path d="M345.347 262.371C345.886 262.371 346.322 261.934 346.322 261.396C346.322 260.857 345.886 260.421 345.347 260.421C344.808 260.421 344.372 260.857 344.372 261.396C344.372 261.934 344.808 262.371 345.347 262.371Z" fill="#4B4B5B"/>
<g opacity="0.1">
<path opacity="0.1" d="M317.734 55.3799C317.95 49.2524 316.86 43.1491 314.535 37.4751C307.291 38.5559 299.355 32.9683 292.757 36.3108C287.875 38.7843 286.343 44.9847 286.07 50.4497C286.003 51.8925 285.992 53.3354 286.02 54.7782C286.02 54.2657 286.02 53.7476 286.07 53.2351C286.326 47.7701 287.859 41.5697 292.757 39.0963C299.355 35.7538 307.28 41.3246 314.535 40.2606C316.504 45.0666 317.588 50.1886 317.734 55.3799V55.3799Z" fill="black"/>
<path opacity="0.1" d="M261.595 54.3604C261.69 53.1466 261.666 51.9262 261.522 50.7171C260.931 45.8147 258.251 41.1296 257.766 36.3499C257.142 42.1157 260.814 47.6531 261.522 53.5025C261.595 53.8034 261.595 54.0708 261.595 54.3604Z" fill="black"/>
<path opacity="0.1" d="M290.957 104.353C290.612 108.487 289.637 112.905 286.499 115.645C283.362 118.386 277.583 118.236 275.838 114.481C275.281 113.367 275.198 112.069 274.657 110.955C273.42 108.403 270.377 107.412 267.719 106.415C260.168 103.59 252.884 98.0582 251.263 90.1421C251.118 89.4249 251.019 88.6992 250.967 87.9694C250.83 89.6278 250.93 91.2971 251.263 92.9275C252.884 100.821 260.179 106.376 267.719 109.2C270.377 110.197 273.42 111.189 274.657 113.74C275.214 114.854 275.309 116.141 275.838 117.267C277.594 121.021 283.384 121.166 286.499 118.431C289.614 115.696 290.584 111.272 290.957 107.139C291.127 104.963 291.185 102.78 291.13 100.599C291.13 101.863 291.058 103.111 290.957 104.353Z" fill="black"/>
<path opacity="0.1" d="M334.001 63.5468C334.001 64.3546 334.001 65.1568 334.001 65.959C334.313 55.5972 338.114 45.1797 337.74 35.0351C337.45 44.4165 334.213 54.0095 334.001 63.5468Z" fill="black"/>
<path opacity="0.1" d="M322.042 105.462C322.179 104.801 322.222 104.124 322.17 103.451C321.946 102.009 321.44 100.626 320.682 99.3786C317.461 93.2506 313.789 86.9778 313.354 80.1758C313.354 80.4655 313.315 80.7329 313.309 81.0449C313.086 88.5878 317.16 95.4901 320.682 102.164C321.281 103.198 321.738 104.307 322.042 105.462V105.462Z" fill="black"/>
<path opacity="0.1" d="M337.205 97.4009C336.789 104.15 334.868 110.721 331.582 116.631C328.64 121.985 323.441 127.316 317.416 126.286C316.877 126.239 316.369 126.009 315.979 125.634C315.866 125.506 315.777 125.359 315.717 125.199C315.65 125.634 315.594 126.074 315.561 126.52C315.446 127.183 315.596 127.865 315.979 128.419C316.369 128.795 316.877 129.025 317.416 129.071C323.441 130.102 328.64 124.771 331.582 119.417C334.868 113.506 336.789 106.936 337.205 100.186C337.272 98.8827 337.278 97.5847 337.239 96.2867C337.228 96.66 337.228 97.0276 337.205 97.4009Z" fill="black"/>
</g>
<path opacity="0.1" d="M338.114 265.106C338.114 265.106 352.218 271.022 361.519 257.931" stroke="black" stroke-miterlimit="10"/>
<path opacity="0.1" d="M340.889 275.446C340.889 275.446 352.408 267.958 367.081 275.2" stroke="black" stroke-miterlimit="10"/>
<path opacity="0.1" d="M263.785 273.746C263.785 273.746 268.622 262.839 281.539 271.156" stroke="black" stroke-miterlimit="10"/>
<path opacity="0.1" d="M248.103 112.437L257.967 103.523C257.967 103.523 296.212 101.016 297.795 114.013C297.795 114.013 311.353 98.6042 339.869 102.036L351.934 111.64L318.587 126.269L286.181 137.506L262.313 126.826L248.103 112.437Z" fill="black"/>
<path d="M248.103 112.994L257.967 104.08C257.967 104.08 296.212 101.573 297.795 114.57C297.795 114.57 311.353 99.1613 339.869 102.593L351.934 112.197L318.587 126.826L286.181 138.063L262.313 127.383L248.103 112.994Z" fill="#D5D6DB"/>
<path opacity="0.1" d="M243.74 114.108L248.103 166.29L294.357 168.613L292.35 116.654L292.311 115.779L243.74 114.108Z" fill="black"/>
<path d="M243.74 112.994L248.103 165.176L294.357 167.499L292.35 115.54L292.311 114.665L243.74 112.994Z" fill="#274259"/>
<path opacity="0.1" d="M354.052 112.994L306.338 120.147V172.563L352.965 165.828L354.052 112.994Z" fill="black"/>
<path d="M354.052 111.88L306.338 119.033V171.449L352.965 164.714L354.052 111.88Z" fill="#274259"/>
<path opacity="0.3" d="M342.8 124.67L317.026 127.534L317.589 136.313L342.784 133.561L342.8 124.67Z" fill="white"/>
<path d="M250.611 193.119L253.236 200.178C253.236 200.178 257.136 203.52 261.405 201.849C265.674 200.178 269.396 199.348 271.252 197.721C273.108 196.094 275.71 187.922 275.71 187.922C275.71 187.922 278.313 179.008 280.91 176.78C283.507 174.552 290.383 143.851 280.91 146.853C271.436 149.856 264.191 177.71 264.191 177.71C264.191 177.71 262.52 179.749 260.107 179.939C257.694 180.128 252.862 179.566 251.932 181.61C251.001 183.655 247.824 189.036 250.611 193.119Z" fill="#BE6F72"/>
<path opacity="0.1" d="M306.338 120.141C303.895 120.691 301.357 120.663 298.927 120.057C296.498 119.452 294.243 118.286 292.345 116.654L294.357 168.608C294.357 168.608 299.093 173.733 306.338 172.563V120.141Z" fill="black"/>
<path d="M306.338 119.027C303.895 119.577 301.357 119.549 298.927 118.943C296.498 118.337 294.243 117.172 292.345 115.54L294.357 167.493C294.357 167.493 299.093 172.619 306.338 171.449V119.027Z" fill="#274259"/>
<path opacity="0.1" d="M306.338 119.027C303.895 119.577 301.357 119.549 298.927 118.943C296.498 118.337 294.243 117.172 292.345 115.54L294.357 167.493C294.357 167.493 299.093 172.619 306.338 171.449V119.027Z" fill="black"/>
<path opacity="0.1" d="M307.452 113.172C307.452 113.172 326.862 107.239 331.922 108.075Z" fill="black"/>
<path opacity="0.1" d="M285.741 110.582C285.741 110.582 266.928 106.125 263.785 107.389Z" fill="black"/>
<path opacity="0.1" d="M319.69 113.913C319.69 113.913 332.669 109.155 337.361 111.417Z" fill="black"/>
<path opacity="0.1" d="M313.153 233.257C315.165 231.748 317.305 230.418 319.551 229.285C322.894 227.675 329.024 223.497 329.024 223.497" fill="black"/>
<path opacity="0.1" d="M263.785 176.407C263.785 176.407 255.643 183.064 253.196 183.649C250.75 184.234 249.24 189.426 249.24 189.426" fill="black"/>
<path d="M349.265 192.128L346.668 199.203C346.668 199.203 342.767 202.545 338.493 200.874C334.218 199.203 330.507 198.373 328.646 196.746C326.784 195.119 324.187 186.947 324.187 186.947C324.187 186.947 321.59 178.034 318.988 175.805C316.386 173.577 309.514 142.876 318.988 145.879C328.462 148.881 335.706 176.736 335.706 176.736C335.706 176.736 337.378 178.774 339.791 178.964C342.204 179.153 347.035 178.591 347.966 180.635C348.897 182.68 352.051 188.061 349.265 192.128Z" fill="#BE6F72"/>
<path opacity="0.1" d="M344.712 179.114C344.712 179.114 350.034 182.535 350.011 186.624Z" fill="black"/>
<path d="M299.556 79.9641C313.304 79.9641 324.449 68.8227 324.449 55.0791C324.449 41.3355 313.304 30.1941 299.556 30.1941C285.808 30.1941 274.663 41.3355 274.663 55.0791C274.663 68.8227 285.808 79.9641 299.556 79.9641Z" fill="#BE6F72"/>
<path d="M283.924 48.3996C286.945 47.9261 289.592 46.1713 292.479 45.163C298.937 42.8956 306.082 44.4499 312.618 46.4944C315.126 47.2799 317.673 48.1657 320.303 48.1657C322.933 48.1657 325.725 47.0905 327.068 44.8231C328.306 42.7396 328.066 40.0322 327.024 37.8429C325.982 35.6535 324.238 33.8931 322.477 32.233C316.681 26.7624 309.492 21.6484 301.54 22.2055C298.341 22.4339 295.282 23.5759 292.339 24.8405C288.634 26.4365 285.028 28.2521 281.539 30.2776C278.859 31.8319 273.894 33.9098 272.35 36.751C268.839 43.1519 278.463 49.2575 283.924 48.3996Z" fill="#3E373A"/>
<path opacity="0.1" d="M327.068 42.4834C325.725 44.7507 322.933 45.8259 320.303 45.8259C317.673 45.8259 315.126 44.9736 312.613 44.1881C306.076 42.1436 298.937 40.5837 292.473 42.8566C289.592 43.865 286.939 45.6421 283.919 46.0877C279.516 46.7785 272.428 42.9458 271.659 38.0713C270.795 43.7034 279.015 48.5278 283.919 47.759C286.939 47.2855 289.592 45.5306 292.473 44.5279C298.937 42.255 306.076 43.8148 312.613 45.8593C315.126 46.6448 317.667 47.5306 320.303 47.4972C322.939 47.4637 325.725 46.4275 327.068 44.1546C327.765 42.9181 328.039 41.4885 327.849 40.0823C327.762 40.9289 327.496 41.7473 327.068 42.4834Z" fill="black"/>
<path d="M529.085 344.396C529.085 344.396 532.39 348.714 527.558 355.237C522.727 361.76 518.748 367.264 520.353 371.331C520.353 371.331 527.642 359.22 533.571 359.047C539.501 358.875 535.6 351.677 529.085 344.396Z" fill="#274259"/>
<path opacity="0.1" d="M529.085 344.396C529.373 344.813 529.6 345.269 529.759 345.75C535.544 352.546 538.631 358.891 533.064 359.047C527.881 359.198 521.668 368.462 520.18 370.796C520.227 370.985 520.285 371.171 520.353 371.354C520.353 371.354 527.642 359.242 533.571 359.07C539.501 358.897 535.6 351.677 529.085 344.396Z" fill="black"/>
<path d="M535.215 349.9C535.215 351.421 535.042 352.652 534.836 352.652C534.63 352.652 534.452 351.421 534.452 349.9C534.452 348.379 534.663 349.098 534.875 349.098C535.087 349.098 535.215 348.379 535.215 349.9Z" fill="#FFD037"/>
<path d="M537.327 351.716C535.995 352.44 534.831 352.881 534.73 352.697C534.63 352.513 535.627 351.772 536.959 351.025C538.291 350.279 537.767 350.825 537.868 351.025C537.968 351.226 538.665 350.986 537.327 351.716Z" fill="#FFD037"/>
<path d="M511.62 344.396C511.62 344.396 508.316 348.714 513.147 355.237C517.979 361.76 521.958 367.264 520.347 371.331C520.347 371.331 513.063 359.22 507.129 359.047C501.194 358.875 505.122 351.677 511.62 344.396Z" fill="#274259"/>
<path opacity="0.1" d="M511.62 344.396C511.332 344.813 511.105 345.269 510.946 345.75C505.161 352.546 502.074 358.891 507.641 359.047C512.818 359.198 519.037 368.462 520.525 370.796C520.479 370.986 520.419 371.172 520.347 371.354C520.347 371.354 513.063 359.242 507.129 359.07C501.194 358.897 505.122 351.677 511.62 344.396Z" fill="black"/>
<path d="M505.479 349.9C505.479 351.421 505.646 352.652 505.858 352.652C506.07 352.652 506.243 351.421 506.243 349.9C506.243 348.379 506.025 349.098 505.819 349.098C505.613 349.098 505.479 348.379 505.479 349.9Z" fill="#FFD037"/>
<path d="M503.372 351.716C504.704 352.44 505.869 352.881 505.969 352.697C506.07 352.513 505.072 351.772 503.74 351.025C502.408 350.279 502.932 350.825 502.832 351.025C502.732 351.226 502.035 350.986 503.372 351.716Z" fill="#FFD037"/>
<path opacity="0.1" d="M520.353 404.378C539.435 404.378 554.904 402.006 554.904 399.08C554.904 396.154 539.435 393.782 520.353 393.782C501.271 393.782 485.802 396.154 485.802 399.08C485.802 402.006 501.271 404.378 520.353 404.378Z" fill="#274259"/>
<path d="M538.135 365.51L537.968 366.858L537.734 368.763L537.639 369.56L537.405 371.465L537.305 372.262L537.076 374.161L534.429 395.832C534.195 397.765 531.036 399.275 527.218 399.275H513.482C509.664 399.275 506.51 397.765 506.27 395.832L503.623 374.161L503.389 372.262L503.295 371.465L503.061 369.56L502.96 368.763L502.732 366.858L502.565 365.51C502.436 364.396 504.142 363.493 506.304 363.493H534.402C536.558 363.493 538.269 364.412 538.135 365.51Z" fill="#65617D"/>
<path d="M537.968 366.858L537.74 368.763H502.966L502.732 366.858H537.968Z" fill="#9D9CB5"/>
<path d="M537.639 369.56L537.411 371.465H503.295L503.06 369.56H537.639Z" fill="#9D9CB5"/>
<path d="M537.31 372.262L537.076 374.167H503.623L503.395 372.262H537.31Z" fill="#9D9CB5"/>
</g>
<defs>
<linearGradient id="paint0_linear" x1="304.627" y1="279.613" x2="304.627" y2="1.15419e-05" gradientUnits="userSpaceOnUse">
<stop stop-color="#808080" stop-opacity="0.25"/>
<stop offset="0.54" stop-color="#808080" stop-opacity="0.12"/>
<stop offset="1" stop-color="#808080" stop-opacity="0.1"/>
</linearGradient>
<clipPath id="clip0">
<rect width="570" height="453" fill="white"/>
</clipPath>
</defs>
</svg>
