<svg width="50" height="78" viewBox="0 0 50 78" fill="none" xmlns="http://www.w3.org/2000/svg">
<path d="M30.976 58.176C29.792 58.176 28.464 57.936 26.992 57.456C25.52 56.976 24 56.4 22.432 55.728C20.896 55.056 19.392 54.416 17.92 53.808C17.12 54.672 16.256 55.344 15.328 55.824C14.4 56.304 13.408 56.544 12.352 56.544C11.232 56.544 10.272 56.288 9.472 55.776C8.64 55.296 8.016 54.704 7.6 54C7.152 53.296 6.928 52.656 6.928 52.08C6.928 51.44 7.216 50.88 7.792 50.4C8.368 49.92 9.392 49.68 10.864 49.68C11.728 49.68 12.672 49.776 13.696 49.968C14.752 50.128 15.824 50.352 16.912 50.64C17.648 49.36 18.32 47.856 18.928 46.128C19.568 44.4 20.192 42.592 20.8 40.704C21.408 38.784 22.016 36.912 22.624 35.088C21.024 34.544 19.792 33.792 18.928 32.832C18.064 31.84 17.632 30.848 17.632 29.856C17.632 29.216 17.792 28.592 18.112 27.984C18.432 27.344 18.896 26.816 19.504 26.4C20.112 25.952 20.832 25.728 21.664 25.728C21.248 26.24 20.976 26.816 20.848 27.456C20.752 28.096 20.704 28.608 20.704 28.992C20.704 30.048 20.944 30.944 21.424 31.68C21.904 32.416 22.496 32.992 23.2 33.408C23.808 31.584 24.448 29.84 25.12 28.176C25.824 26.48 26.592 24.992 27.424 23.712C28.288 22.4 29.232 21.36 30.256 20.592C31.312 19.824 32.496 19.44 33.808 19.44C34.544 19.44 35.312 19.6 36.112 19.92C36.944 20.208 37.648 20.72 38.224 21.456C38.832 22.192 39.136 23.248 39.136 24.624C39.136 25.712 38.896 26.88 38.416 28.128C37.968 29.376 37.248 30.576 36.256 31.728C35.264 32.848 33.984 33.792 32.416 34.56C30.88 35.296 29.008 35.696 26.8 35.76H26.368C25.472 38.544 24.48 41.344 23.392 44.16C22.304 46.976 21.104 49.392 19.792 51.408C21.04 51.76 22.416 52.16 23.92 52.608C25.456 53.056 26.976 53.44 28.48 53.76C30.016 54.048 31.36 54.192 32.512 54.192C33.28 54.192 33.984 54.112 34.624 53.952C35.296 53.76 36 53.488 36.736 53.136C36.096 54.928 35.296 56.208 34.336 56.976C33.408 57.776 32.288 58.176 30.976 58.176ZM26.896 34.176C28.304 34.08 29.552 33.632 30.64 32.832C31.728 32.032 32.656 31.072 33.424 29.952C34.192 28.832 34.768 27.696 35.152 26.544C35.568 25.36 35.776 24.336 35.776 23.472C35.776 22.64 35.616 22.08 35.296 21.792C34.976 21.472 34.608 21.312 34.192 21.312C33.264 21.312 32.384 21.904 31.552 23.088C30.72 24.272 29.92 25.84 29.152 27.792C28.416 29.712 27.664 31.84 26.896 34.176ZM11.872 54.768C12.704 54.768 13.376 54.576 13.888 54.192C14.4 53.84 14.912 53.392 15.424 52.848C14.432 52.496 13.504 52.208 12.64 51.984C11.776 51.728 11.024 51.6 10.384 51.6C9.776 51.6 9.344 51.712 9.088 51.936C8.8 52.16 8.656 52.432 8.656 52.752C8.656 53.264 8.976 53.728 9.616 54.144C10.256 54.56 11.008 54.768 11.872 54.768Z" fill="white"/>
</svg>
