<svg width="24" height="24" viewBox="0 0 24 24" fill="none" xmlns="http://www.w3.org/2000/svg">
<path d="M0.775705 8.45108L7.97044 7.35612L11.1867 0.528203C11.2745 0.341259 11.419 0.189923 11.5976 0.0979342C12.0453 -0.133521 12.5894 0.0593584 12.8132 0.528203L16.0294 7.35612L23.2242 8.45108C23.4225 8.48076 23.6039 8.57868 23.7427 8.72705C23.9106 8.90772 24.0031 9.15079 23.9999 9.40284C23.9967 9.6549 23.8981 9.89531 23.7257 10.0713L18.5203 15.3858L19.7501 22.8903C19.7789 23.0649 19.7605 23.2444 19.6968 23.4086C19.6332 23.5727 19.5269 23.7149 19.39 23.819C19.2531 23.9231 19.0911 23.985 18.9224 23.9976C18.7536 24.0102 18.5849 23.973 18.4352 23.8903L11.9999 20.3473L5.56464 23.8903C5.38895 23.9882 5.18492 24.0209 4.9894 23.9853C4.49634 23.8962 4.1648 23.4066 4.24981 22.8903L5.47963 15.3858L0.274142 10.0713C0.132458 9.92587 0.0389465 9.73595 0.0106096 9.52824C-0.0659 9.00895 0.27981 8.52823 0.775705 8.45108V8.45108ZM7.67007 14.6381L6.64711 20.8784L11.9999 17.9348L17.3528 20.8814L16.3298 14.641L20.6597 10.2196L14.6749 9.30865L11.9999 3.63207L9.32494 9.30865L3.34019 10.2196L7.67007 14.6381Z" fill="#274259"/>
</svg>
